D:\school\WTK\thesis\model\3dpredictsim\Results\batch_windlass\Pog_s1_tmt_aCst_d05_k1000_WL30_ig24_act_TTC_GRF.mot
nRows=20
nColumns=19

name D:\school\WTK\thesis\model\3dpredictsim\Results\batch_windlass\Pog_s1_tmt_aCst_d05_k1000_WL30_ig24_act_TTC_GRF.mot
datacolumns 19
datarows 20
range 0.0000000000 0.2262038326
endheader
time 	ground_force_vx	ground_force_vy	ground_force_vz	ground_force_px	ground_force_py	ground_force_pz	1_ground_force_vx	1_ground_force_vy	1_ground_force_vz	1_ground_force_px	1_ground_force_py	1_ground_force_pz	ground_torque_x	ground_torque_y	ground_torque_z	1_ground_torque_x	1_ground_torque_y	1_ground_torque_z
        0.0000000000	      -29.4541153814	       26.4907386505	        5.8336197680	        0.1676277583	        0.0000000000	        0.0741590190	       42.1984177867	      233.6304742060	       -5.6022857602	       -0.3763424714	        0.0000000000	       -0.0261503305	        0.0000000000	        0.0000000000	        0.0000000000	        0.0000000000	        0.0000000000	        0.0000000000	
        0.0119054649	     -123.6995751907	      125.8904351237	       27.6154155311	        0.1799181041	        0.0000000000	        0.0739863992	       33.0927326929	      189.1342562022	      -10.7578480892	       -0.3757110727	        0.0000000000	       -0.0260425996	        0.0000000000	        0.0000000000	        0.0000000000	        0.0000000000	        0.0000000000	        0.0000000000	
        0.0238109297	     -105.7778189091	      439.2355252408	       -2.5547921538	        0.1881423262	        0.0000000000	        0.0720113214	       21.8327423270	      127.1546558911	      -14.1497292510	       -0.3756912680	        0.0000000000	       -0.0264800321	        0.0000000000	        0.0000000000	        0.0000000000	        0.0000000000	        0.0000000000	        0.0000000000	
        0.0357163946	     -164.4885294743	      886.6921778327	      -27.6571236038	        0.2012020188	        0.0000000000	        0.0690014652	        0.4294853078	       52.8531525131	      -10.8641615663	       -0.3770059549	        0.0000000000	       -0.0270167735	        0.0000000000	        0.0000000000	        0.0000000000	        0.0000000000	        0.0000000000	        0.0000000000	
        0.0476218595	     -189.0839473206	     1085.2147517112	      -32.2199444550	        0.2066321399	        0.0000000000	        0.0672363555	        0.4176578842	       -0.4215536348	        0.0169087842	        0.0000000000	        0.0000000000	        0.0000000000	        0.0000000000	        0.0000000000	        0.0000000000	        0.0000000000	        0.0000000000	        0.0000000000	
        0.0595273244	     -176.6575831544	     1043.5831246712	      -32.5698048259	        0.2097772651	        0.0000000000	        0.0659900685	        0.0021789866	       -0.0018472536	       -0.0000362304	        0.0000000000	        0.0000000000	        0.0000000000	        0.0000000000	        0.0000000000	        0.0000000000	        0.0000000000	        0.0000000000	        0.0000000000	
        0.0714327892	     -146.6933331499	      924.9302818384	      -29.7475915013	        0.2127058652	        0.0000000000	        0.0652384202	        0.0004433940	       -0.0003305084	       -0.0000124171	        0.0000000000	        0.0000000000	        0.0000000000	        0.0000000000	        0.0000000000	        0.0000000000	        0.0000000000	        0.0000000000	        0.0000000000	
        0.0833382541	     -125.9598380398	      829.1889359590	      -27.5122370157	        0.2159103309	        0.0000000000	        0.0647223507	        0.0007414835	       -0.0005024511	       -0.0000261008	        0.0000000000	        0.0000000000	        0.0000000000	        0.0000000000	        0.0000000000	        0.0000000000	        0.0000000000	        0.0000000000	        0.0000000000	
        0.0952437190	     -111.4767778171	      771.8578569995	      -25.6678937978	        0.2186340441	        0.0000000000	        0.0644351309	        0.0052971389	       -0.0033437151	       -0.0001809540	        0.0000000000	        0.0000000000	        0.0000000000	        0.0000000000	        0.0000000000	        0.0000000000	        0.0000000000	        0.0000000000	        0.0000000000	
        0.1071491839	      -97.7038868595	      736.9668095989	      -26.1470873949	        0.2208475264	        0.0000000000	        0.0642793125	       -0.0209564276	        0.0125996452	        0.0006931211	        0.0000000000	        0.0000000000	        0.0000000000	        0.0000000000	        0.0000000000	        0.0000000000	        0.0000000000	        0.0000000000	        0.0000000000	
        0.1190546487	      -83.1545980155	      711.2015553265	      -27.1441896373	        0.2228762800	        0.0000000000	        0.0642135080	       -0.0360778270	        0.0205374615	        0.0013048172	        0.0000000000	        0.0000000000	        0.0000000000	        0.0000000000	        0.0000000000	        0.0000000000	        0.0000000000	        0.0000000000	        0.0000000000	
        0.1309601136	      -68.3097425149	      688.5198613346	      -27.9667100265	        0.2261856088	        0.0000000000	        0.0639993543	       -0.0198196514	        0.0105980560	        0.0009172621	        0.0000000000	        0.0000000000	        0.0000000000	        0.0000000000	        0.0000000000	        0.0000000000	        0.0000000000	        0.0000000000	        0.0000000000	
        0.1428655785	      -57.4173188970	      667.0360154577	      -27.9578882074	        0.2308997080	        0.0000000000	        0.0635370541	       -0.0117969800	        0.0059704458	        0.0006334904	        0.0000000000	        0.0000000000	        0.0000000000	        0.0000000000	        0.0000000000	        0.0000000000	        0.0000000000	        0.0000000000	        0.0000000000	
        0.1547710433	      -49.1547207611	      647.9215127266	      -27.7545855259	        0.2364816243	        0.0000000000	        0.0628709379	       -0.0088588542	        0.0042792530	        0.0005231340	        0.0000000000	        0.0000000000	        0.0000000000	        0.0000000000	        0.0000000000	        0.0000000000	        0.0000000000	        0.0000000000	        0.0000000000	
        0.1666765082	      -42.6316433710	      630.2729622639	      -27.2365927993	        0.2424780529	        0.0000000000	        0.0620620677	       -0.0085730354	        0.0039794474	        0.0005363288	        0.0000000000	        0.0000000000	        0.0000000000	        0.0000000000	        0.0000000000	        0.0000000000	        0.0000000000	        0.0000000000	        0.0000000000	
        0.1785819731	      -37.2554679811	      614.8443485151	      -26.2975732791	        0.2485261958	        0.0000000000	        0.0611796417	       -0.0104947594	        0.0047057460	        0.0006694980	        0.0000000000	        0.0000000000	        0.0000000000	        0.0000000000	        0.0000000000	        0.0000000000	        0.0000000000	        0.0000000000	        0.0000000000	
        0.1904874380	      -33.1161807562	      602.8917627600	      -25.1028514896	        0.2544040635	        0.0000000000	        0.0602679418	       -0.0157484194	        0.0068487631	        0.0009906907	        0.0000000000	        0.0000000000	        0.0000000000	        0.0000000000	        0.0000000000	        0.0000000000	        0.0000000000	        0.0000000000	        0.0000000000	
        0.2023929028	      -29.7415920755	      593.5987717440	      -23.9784566335	        0.2599498664	        0.0000000000	        0.0593628443	       -0.0278864852	        0.0118035944	        0.0016857914	        0.0000000000	        0.0000000000	        0.0000000000	        0.0000000000	        0.0000000000	        0.0000000000	        0.0000000000	        0.0000000000	        0.0000000000	
        0.2142983677	      -26.6859801228	      585.8669377979	      -23.3217614072	        0.2652010037	        0.0000000000	        0.0584673521	       -0.0549022890	        0.0226958965	        0.0031437908	        0.0000000000	        0.0000000000	        0.0000000000	        0.0000000000	        0.0000000000	        0.0000000000	        0.0000000000	        0.0000000000	        0.0000000000	
        0.2262038326	      -23.7937624162	      579.1117665702	      -22.9060652618	        0.2701829087	        0.0000000000	        0.0575876611	       -0.1120888560	        0.0454028764	        0.0060197327	        0.0000000000	        0.0000000000	        0.0000000000	        0.0000000000	        0.0000000000	        0.0000000000	        0.0000000000	        0.0000000000	        0.0000000000	
